PathFileType	3	(X/Y/Z)	D:\minhoCalibration\240510\subject1_KPNP\preferred\preferred11.trc
DataRate	CameraRate	NumFrames	NumMarkers	Units	OrigDataRate	OrigDataStartFrame	OrigNumFrames
200.0	200.0	18	10	mm	200.0	449	246	
Frame#	Time	Left_Ankle_Outer1			Left_Ankle_Inner1			Left_Knee_Outer1			Left_Knee_Inner1			Left_Wrist1			Right_Wrist1			Right_Knee_Inner1			Right_Knee_Outer1			Right_Ankle_Inner1			Right_Ankle_Outer1			
		X1	Y1	Z1	X2	Y2	Z2	X3	Y3	Z3	X4	Y4	Z4	X5	Y5	Z5	X6	Y6	Z6	X7	Y7	Z7	X8	Y8	Z8	X9	Y9	Z9	X10	Y10	Z10	
449	2.235	-525.33728	152.0294	-528.85181	-555.38019	164.29518	-480.72507	-349.51932	569.02002	-487.64865	-431.5358	558.3327	-415.99448	-439.44974	995.30188	-728.05109	-552.93939	1201.3331	-454.22617	-281.64005	993.14197	-136.56775	-312.24634	1095.885	-136.49875	-562.19568	982.97186	237.76489	-538.22479	1076.6515	280.172
450	2.24	-526.79205	151.11739	-528.42462	-557.16638	163.27803	-480.46979	-350.99237	567.99451	-484.63586	-432.87167	557.14429	-415.08701	-439.68839	993.62817	-725.54639	-554.18286	1202.0947	-453.86545	-285.24457	997.02075	-135.73872	-315.07297	1098.1394	-136.18022	-510.315	997.66052	276.35196	-482.14389	1094.0341	308.97302
451	2.245	-527.82776	150.2971	-528.45416	-558.54529	162.21118	-480.64984	-352.10834	567.13147	-481.88281	-435.42935	555.95044	-411.41425	-439.26898	992.35968	-722.54645	-555.90289	1203.1182	-453.85254	-291.43701	999.3913	-133.35693	-319.86887	1098.9159	-133.94235	-452.00037	1008.8477	306.98346	-424.37024	1110.4929	330.62823
452	2.25	-528.58636	149.35338	-528.60541	-559.57483	161.22964	-481.06641	-353.09656	566.23352	-479.23941	-436.88156	554.57275	-410.21359	-438.23752	991.52893	-719.18152	-558.16998	1203.6222	-453.98553	-298.73135	1000.839	-129.69939	-327.10016	1099.6512	-130.50497	-395.50659	1021.2621	325.96274	-366.30328	1124.007	342.47815
453	2.255	-528.98926	148.33965	-529.09082	-560.41339	160.10759	-481.71048	-353.84866	565.34589	-476.79788	-438.11841	553.36292	-408.31812	-436.81659	990.99933	-715.62714	-560.68024	1203.8247	-452.73035	-308.46701	1001.1415	-124.64392	-336.16144	1101.1879	-126.51649	-338.17221	1030.859	336.5054	-309.7886	1134.7396	345.19669
454	2.26	-529.32288	147.22536	-529.65674	-560.97003	158.60822	-482.52588	-354.28842	564.32556	-474.49191	-439.15051	552.14844	-406.35956	-434.98041	990.73596	-711.76367	-563.43304	1203.6362	-450.17648	-317.71686	1001.336	-119.31861	-345.3631	1104.1152	-120.96295	-300.01892	1037.9377	335.00833	-265.40167	1142.8243	333.09604
455	2.265	-529.56519	146.13629	-530.35791	-561.76691	157.69771	-483.41681	-354.35043	563.14642	-472.35251	-440.05191	550.74255	-403.88461	-433.10364	990.70276	-706.77124	-565.96399	1203.1766	-448.02475	-325.66644	1001.0111	-114.12513	-351.7662	1109.0721	-114.06013	-287.83862	1042.1204	331.10965	-251.23888	1146.0315	331.06342
456	2.27	-529.78571	144.98375	-531.0545	-562.07898	156.36778	-484.21854	-354.19308	561.85498	-470.05707	-439.92297	548.29797	-403.93198	-430.80832	990.99353	-701.34686	-568.76947	1202.7156	-444.28848	-328.74435	999.51984	-109.2363	-354.90735	1116.7058	-108.41426	-289.66635	1044.9535	335.60934	-246.82382	1147.4523	334.31635
457	2.275	-529.82202	144.12402	-531.51611	-562.40527	155.37917	-485.14938	-354.03723	560.42017	-467.59323	-440.11264	546.84631	-400.20853	-428.47647	991.18439	-695.4577	-570.85986	1203.265	-440.41235	-326.09009	1000.8619	-102.91091	-351.31689	1122.307	-106.19267	-295.37628	1046.0977	341.58627	-249.76534	1148.0123	338.67099
458	2.28	-529.09784	143.76825	-532.31726	-562.23163	154.85777	-485.59729	-353.76718	559.17468	-464.84198	-439.1983	544.33099	-399.00519	-426.23438	991.16858	-689.12677	-573.25812	1203.9413	-436.25699	-320.30914	1008.2272	-99.261635	-342.45615	1124.0923	-106.16623	-295.33691	1042.0482	341.84717	-256.41013	1146.5665	344.63373
459	2.285	-527.95062	143.62965	-532.60168	-561.47668	154.48827	-486.46933	-353.70227	558.2674	-461.60617	-439.04639	543.0473	-394.31671	-424.24435	990.92566	-682.79321	-575.89008	1205.0862	-432.17654	-313.69745	1014.9915	-99.626244	-333.78748	1123.8398	-106.29539	-296.0051	1034.2308	341.13629	-264.70462	1140.6046	351.76981
460	2.29	-526.41266	143.83228	-532.50885	-560.3501	154.46878	-486.90469	-353.76926	558.03809	-457.79193	-437.86057	541.07861	-392.27399	-422.61749	990.40607	-676.4632	-578.91382	1206.0381	-428.66382	-307.00906	1019.8796	-102.99342	-329.47641	1123.714	-106.67962	-300.04233	1028.8827	339.48953	-275.96539	1131.9795	357.48563
461	2.295	-524.22351	144.33269	-532.72797	-559.17914	154.57347	-487.37006	-353.94254	558.47058	-453.34735	-437.44073	540.33899	-388.48859	-421.32239	989.66321	-670.4057	-582.12842	1206.8468	-425.70932	-303.13116	1024.7488	-105.92079	-331.19458	1125.3328	-105.38909	-307.48364	1023.1253	338.75259	-287.81131	1125.681	361.32358
462	2.3	-521.99768	144.88409	-532.62286	-557.82111	154.73534	-487.82086	-354.05692	559.4162	-448.43146	-437.74759	540.37872	-384.69128	-420.31335	988.73468	-664.53192	-585.27753	1207.2081	-423.10696	-301.36722	1027.996	-106.41341	-333.66113	1126.1459	-102.44807	-314.50882	1016.5266	339.23639	-296.02014	1120.0194	364.7392
463	2.305	-520.01166	145.56693	-532.02454	-556.42206	155.12466	-488.12433	-354.12796	560.49481	-443.21365	-438.81967	540.84387	-380.9603	-419.20242	987.99377	-658.88391	-588.80688	1207.3883	-420.08908	-300.04001	1029.3424	-106.1278	-334.59259	1127.1361	-100.72031	-323.23389	1008.3187	340.27747	-303.51636	1111.6193	367.64252
464	2.31	-517.90771	146.55914	-531.94098	-555.19202	155.91936	-488.25012	-354.30228	561.45563	-437.84592	-440.73172	542.15253	-376.08115	-418.11768	987.43652	-653.40173	-592.28979	1207.0753	-418.07635	-298.23224	1030.3333	-106.4324	-335.44107	1127.6521	-100.13663	-331.34274	999.52905	340.86057	-312.08691	1101.9635	369.38364
465	2.315	-516.00708	147.66228	-531.27332	-553.73389	156.51903	-488.28122	-354.67368	562.23334	-432.44006	-442.83545	542.59363	-373.19971	-417.15497	987.05615	-648.14667	-595.80939	1206.4474	-415.82941	-295.58209	1031.7986	-107.98156	-337.49313	1127.5934	-100.14173	-341.44006	990.87299	340.32684	-320.72513	1091.2278	369.88834
466	2.32	-514.36609	148.70268	-530.25513	-552.52905	157.55225	-488.14545	-354.60199	563.34888	-427.29437	-444.34885	543.41473	-371.0766	-416.24374	986.91864	-643.21637	-599.53918	1205.6207	-413.55338	-292.44186	1033.694	-110.96924	-341.25784	1127.3032	-97.825874	-348.03256	977.29944	339.36145	-328.64932	1079.8735	369.73718
